<?xml version="1.0" encoding="iso-8859-1"?>
<!-- Generator: Adobe Illustrator 19.0.0, SVG Export Plug-In . SVG Version: 6.00 Build 0)  -->
<svg version="1.1" id="Capa_1" xmlns="http://www.w3.org/2000/svg" xmlns:xlink="http://www.w3.org/1999/xlink" x="0px" y="0px"
	 viewBox="0 0 512 512" style="enable-background:new 0 0 512 512;" xml:space="preserve">
<circle style="fill:#983262;" cx="256" cy="256" r="256"/>
<path style="fill:#662E57;" d="M512,256c0-12.301-0.887-24.393-2.564-36.231L420.667,131L91.333,381l128.436,128.436
	C231.607,511.113,243.699,512,256,512C397.385,512,512,397.385,512,256z"/>
<rect x="91.33" y="131" style="fill:#FFFFFF;" width="329.33" height="250"/>
<rect x="256" y="131" style="fill:#E0E0E0;" width="164.67" height="250"/>
<rect id="SVGCleanerId_0" x="91.33" y="131" style="fill:#E0E0E0;" width="329.33" height="32.17"/>
<g>
	<rect id="SVGCleanerId_0_1_" x="91.33" y="131" style="fill:#E0E0E0;" width="329.33" height="32.17"/>
</g>
<rect x="256" y="131" style="fill:#C0C0C0;" width="164.67" height="32.17"/>
<g>
	<circle style="fill:#FF6838;" cx="111.17" cy="147.08" r="8.917"/>
	<circle style="fill:#FF6838;" cx="137.92" cy="147.08" r="8.917"/>
	<circle style="fill:#FF6838;" cx="164.67" cy="147.08" r="8.917"/>
</g>
<rect x="118.79" y="185" style="fill:#35CCFF;" width="274.42" height="122"/>
<rect x="256" y="185" style="fill:#00BAFF;" width="137.21" height="122"/>
<rect x="118.79" y="328.33" style="fill:#FF6838;" width="274.42" height="25.333"/>
<rect x="256" y="328.33" style="fill:#AE4E32;" width="137.21" height="25.333"/>
<polygon style="fill:#FFFFFF;" points="172.91,282.723 136.187,246 172.91,209.277 184.223,220.59 158.813,246 184.223,271.41 "/>
<polygon style="fill:#E0E0E0;" points="339.091,282.723 327.776,271.41 353.187,246 327.776,220.59 339.091,209.277 375.813,246 "/>
<g>
</g>
<g>
</g>
<g>
</g>
<g>
</g>
<g>
</g>
<g>
</g>
<g>
</g>
<g>
</g>
<g>
</g>
<g>
</g>
<g>
</g>
<g>
</g>
<g>
</g>
<g>
</g>
<g>
</g>
</svg>
