<svg height="512" viewBox="0 0 128 128" width="512" xmlns="http://www.w3.org/2000/svg"><g><path d="m76.943 90.293h-25.886l-6.711-44.909a37.429 37.429 0 0 1 7.87-29.01l11.784-14.627 11.784 14.627a37.429 37.429 0 0 1 7.87 29.01z" fill="#e80054"/><path d="m19.5 75.467 26.634-18.12 4.923 32.946h-31.557z" fill="#2d3c6b"/><path d="m47.344 65.448-19.7 13.4a1.748 1.748 0 0 0 -.766 1.446v10h3.5v-9.07l17.54-11.933z" fill="#73c3f9"/><path d="m108.5 75.467-26.634-18.12-4.923 32.946h31.557z" fill="#2d3c6b"/><path d="m100.356 78.851-19.7-13.4-.574 3.842 17.54 11.933v9.07h3.5v-10a1.748 1.748 0 0 0 -.766-1.445z" fill="#73c3f9"/><path d="m51.057 90.293h25.887v9.499h-25.887z" fill="#73c3f9"/><path d="m64 126.247a36.224 36.224 0 0 1 -8.188-22.938v-3.517h16.375v3.517a36.223 36.223 0 0 1 -8.187 22.938z" fill="#ffc839"/><path d="m62.25 99.792v9.208a1.75 1.75 0 0 0 3.5 0v-9.208z" fill="#ff9100"/><ellipse cx="64" cy="35.375" fill="#fcf9f0" rx="8.188" ry="11.625"/></g></svg>